<svg width="170" height="26" viewBox="0 0 170 26" fill="none" xmlns="http://www.w3.org/2000/svg">
<path d="M14.3526 0.237902C13.4718 -0.0793006 12.5282 -0.0793006 11.6474 0.237902C10.0034 0.8298 4.71634 4.29634 1.8864 7.21501C0.360044 8.78909 1.71191e-06 9.87796 1.71191e-06 11.765C1.71191e-06 12.0797 -2.13989e-06 12.4048 1.71191e-06 12.7368C0.0240485 15.7306 0.174899 19.2947 0.703286 21.0276C1.61675 24.0229 2.98988 26 11.6675 26H14.3325C23.0099 26 24.3833 24.0229 25.2967 21.0276C25.8251 19.2947 25.9759 15.7306 26 12.7366C26 12.4047 26 12.0797 26 11.7649C26 9.87779 25.64 8.78892 24.1136 7.21484C21.2835 4.29651 15.9969 0.8298 14.3526 0.237902Z" fill="#00A1FF"/>
<path d="M87.8972 7.98271H84.7823C84.808 8.51548 84.9752 8.99759 85.6497 9.68645C86.3242 10.3753 87.3974 11.0874 88.678 11.879L87.4347 13.8904C86.121 13.0783 84.8964 12.2634 83.993 11.3408C83.8049 11.1487 83.6256 10.9804 83.4589 10.7706C83.3086 10.9807 83.1129 11.2144 82.9247 11.4065C82.0214 12.329 80.7967 13.1768 79.4831 13.9889L78.2397 11.9775C79.5203 11.1859 80.5935 10.441 81.2681 9.75213C81.9426 9.06327 82.1098 8.51548 82.1354 7.98271H79.0206V5.88083H87.8972V7.98271Z" fill="#111111"/>
<path d="M38.716 5.60315C42.0613 5.60315 43.8088 7.75649 43.8088 10.2463V10.5827C43.8088 12.7557 42.4884 14.6723 39.9192 15.1249V17.6019H46.1428V19.7038H31.1997V17.6019H37.4233V15.1257C34.8511 14.6745 33.5293 12.7569 33.5293 10.5827V10.2463C33.5293 7.75649 35.2768 5.60315 38.622 5.60315H38.716ZM38.669 7.63935C36.8647 7.63935 35.976 8.92458 35.976 10.2783V10.5507C35.976 11.9044 36.8782 13.1896 38.669 13.1896C40.4599 13.1896 41.3621 11.9044 41.3621 10.5507V10.2783C41.3621 8.92459 40.4734 7.63935 38.669 7.63935Z" fill="#111111"/>
<path d="M76.3707 21.645H73.8747V18.1498C73.2308 18.2425 72.0846 18.3908 70.3966 18.5491C67.5983 18.8116 62.6791 18.7643 62.6791 18.7643L62.6392 16.5026C62.6392 16.5026 67.5789 16.5349 70.2171 16.3203C72.0566 16.1707 73.2941 15.9876 73.8747 15.8905V5.00504H76.3707V21.645ZM67.699 5.93157C70.5218 5.93157 71.987 7.81486 71.987 9.96718V10.3035C71.987 12.4558 70.5081 14.3391 67.699 14.3391C67.6832 14.3391 67.6207 14.3381 67.6049 14.3381C64.7958 14.3381 63.3168 12.4558 63.3168 10.3035V9.96718C63.3168 7.81485 64.782 5.93157 67.6049 5.93157H67.699ZM67.6519 7.98419C66.3647 7.98419 65.7142 9.01285 65.7142 10.033V10.2377C65.7142 11.3661 66.3648 12.2821 67.6522 12.2863C68.9271 12.2905 69.5896 11.364 69.5896 10.2377V10.033C69.5896 9.01285 68.927 7.98419 67.6519 7.98419Z" fill="#111111"/>
<path d="M51.4135 8.30539H59.9667V10.3744H48.9175V5.13829H51.4135V8.30539Z" fill="#111111"/>
<path d="M46.8628 13.3218H61.8059V11.2528H46.8628V13.3218Z" fill="#111111"/>
<path d="M91.855 19.1248C91.8528 21.1176 91.4299 21.5232 89.413 21.5246C87.1759 21.526 85.8844 21.5267 83.6438 21.5246C81.6832 21.5226 81.2294 21.133 81.2139 19.2618C81.1993 17.4952 81.2144 14.3717 81.2144 14.3692H83.7104V16.1208H89.392V5.00507H91.8552C91.8552 5.00507 91.8608 13.6853 91.855 19.1248ZM83.7104 19.4556H89.392V18.1242H83.7104V19.4556Z" fill="#111111"/>
<path d="M59.898 14.2009L59.8987 18.8855H51.279V19.7925H60.2692V21.763C60.2692 21.763 54.7698 21.763 51.2461 21.763C49.2076 21.763 48.7878 21.3615 48.7831 19.3528C48.7812 18.5446 48.783 16.9807 48.783 16.9807H57.402V16.1386H48.8496V14.2009H59.898Z" fill="#111111"/>
<path d="M169.837 21.3847H168.105V16.9668C167.042 17.0951 165.499 17.2076 163.792 17.2577C162.682 17.2903 161.404 17.319 159.903 17.3191C158.459 17.3189 158.172 17.0329 158.172 15.5914V6.33233H165.036V7.81239H159.904V10.8656H164.28V12.2833H159.904V15.7798C160.371 15.7745 162.31 15.7889 163.73 15.7459C165.116 15.7039 166.984 15.5754 168.105 15.437V12.1288H165.47V10.5863H168.105V5.26486H169.837V21.3847ZM146.366 19.5894H155.018V21.1329H146.366C145.012 21.1329 144.674 20.8804 144.637 19.6613L144.634 19.4043V15.8422H146.366V19.5894ZM116.071 19.527H124.914V21.0705H116.071C114.627 21.0705 114.34 20.783 114.34 19.3408V15.7798H116.071V19.527ZM110.628 19.0403H96.2783V17.4968H110.628V19.0403ZM140.945 18.9144H126.594V17.3709H140.945V18.9144ZM154.685 17.0451H152.953V5.39076H154.685V17.0451ZM121.419 9.4395H122.847V5.32834H124.579V16.9826H122.847V10.9196H121.419V16.5679H119.719V5.32834H121.419V9.4395ZM151.966 16.442H150.266V10.1885H148.007V8.64605H150.266V5.39076H151.966V16.442ZM99.9568 9.02796H106.95V6.1292H108.682V14.6742H98.226V6.1292H99.9568V9.02796ZM146.498 8.72222C146.498 10.0204 146.705 10.671 147.174 11.1174C147.897 11.8062 148.957 12.5416 149.405 12.8143L148.657 14.16C147.879 13.7053 146.63 12.7199 145.66 11.7056C144.676 12.8339 143.079 14.2099 142.235 14.6012L141.456 13.2418C141.855 13.0275 142.909 12.3225 143.81 11.4263C144.291 10.9475 144.768 10.2398 144.768 8.81955V5.84038H146.498C146.498 5.84038 146.498 6.39328 146.498 8.72222ZM118.181 10.9217H114.261V13.0651C114.727 13.0598 116.667 13.0742 118.087 13.0312C118.378 13.0224 118.69 13.0077 119.012 12.9921V14.3949C118.713 14.4142 118.422 14.4339 118.149 14.4478C116.684 14.5223 115.761 14.5419 114.26 14.542C112.816 14.5418 112.529 14.2548 112.529 12.8133V9.63099H116.509V7.58387H112.529V6.16729H118.176L118.181 10.9217ZM139.073 7.79758H130.318V12.6271H139.263V14.0754H128.587V6.31857H139.073V7.79758ZM99.9568 13.2259H106.95V10.4445H99.9568V13.2259Z" fill="#111111"/>
</svg>
