<svg width="1000" height="1000" viewBox="0 0 1000 1000" fill="none" xmlns="http://www.w3.org/2000/svg">
<path d="M541.616 107.32C514.512 97.56 485.48 97.56 458.377 107.32C407.793 125.532 245.114 232.195 158.039 322C111.074 370.434 99.9961 403.937 99.9961 462.001C99.9961 471.684 99.996 481.687 99.9961 491.902C100.736 584.018 105.378 693.684 121.636 747.003C149.742 839.165 191.992 900 458.997 900H540.995C807.995 900 850.25 839.165 878.357 747.003C894.615 693.684 899.256 584.018 899.996 491.897C899.996 481.682 899.996 471.684 899.996 461.996C899.996 403.932 888.918 370.428 841.953 321.995C754.873 232.2 592.21 125.532 541.616 107.32Z" fill="black"/>
</svg>
