<svg width="480" height="480" viewBox="0 0 480 480" fill="none" xmlns="http://www.w3.org/2000/svg">
<g clip-path="url(#clip0_7301_47429)">
<path fill-rule="evenodd" clip-rule="evenodd" d="M310 106.501C385.195 106.604 419.664 141.18 419.664 216.5V309.5C419.664 384.82 385.195 419.395 310 419.498V419.5H170C94.5714 419.5 60 384.932 60 309.5H59.6641V216.5H60C60 141.068 94.5714 106.5 170 106.5L310 106.501ZM225 175.805C222.239 175.805 220 178.043 220 180.805V258.689C220 268.651 224.945 277.964 233.198 283.543L295.656 325.769C297.944 327.315 301.053 326.715 302.6 324.427L319.401 299.573C320.948 297.286 320.347 294.176 318.06 292.63L262.199 254.866C260.824 253.936 260 252.384 260 250.724V180.805C260 178.043 257.761 175.805 255 175.805H225Z" fill="#2C65CF"/>
<path d="M296.797 42.5C299.558 42.5 301.797 44.7386 301.797 47.5V77.5C301.797 80.2614 299.558 82.5 296.797 82.5H182.797C180.035 82.5 177.797 80.2614 177.797 77.5V47.5C177.797 44.7386 180.035 42.5 182.797 42.5H296.797Z" fill="#2C65CF"/>
</g>
<defs>
<clipPath id="clip0_7301_47429">
<rect width="480" height="480" fill="white"/>
</clipPath>
</defs>
</svg>
