<svg width="480" height="480" viewBox="0 0 480 480" fill="none" xmlns="http://www.w3.org/2000/svg">
<g clip-path="url(#clip0_7301_47432)">
<path fill-rule="evenodd" clip-rule="evenodd" d="M417 166.003C419.761 166.003 422 168.241 422 171.002V300.003C422 382.292 384.286 420.003 302 420.003H178C95.7145 420.003 58.0002 382.293 58 300.004V171.003C58 168.242 60.2386 166.003 63 166.003H417ZM165 239.003C155.611 239.003 148 246.615 148 256.003V312.003C148 321.392 155.611 329.003 165 329.003C174.389 329.003 182 321.392 182 312.003V256.003C182 246.615 174.389 239.003 165 239.003ZM240 239.003C230.611 239.003 223 246.615 223 256.003V312.003C223 321.392 230.611 329.003 240 329.003C249.389 329.003 257 321.392 257 312.003V256.003C257 246.615 249.389 239.003 240 239.003ZM315 239.003C305.611 239.003 298 246.615 298 256.003V312.003C298 321.392 305.611 329.003 315 329.003C324.389 329.003 332 321.392 332 312.003V256.003C332 246.615 324.389 239.003 315 239.003Z" fill="#FF8442"/>
<path d="M190.293 42.8325C192.068 40.7174 195.223 40.4419 197.338 42.2173L220.315 61.5054C222.43 63.2808 222.705 66.4344 220.93 68.5493L166.495 133.401C159.394 141.861 146.779 142.962 138.318 135.861C129.859 128.76 128.757 116.145 135.857 107.685L190.293 42.8325Z" fill="#FF8442"/>
<path d="M283.807 42.2173C285.922 40.4419 289.076 40.7174 290.852 42.8325L345.287 107.685C352.388 116.145 351.286 128.76 342.826 135.861C334.366 142.962 321.751 141.861 314.649 133.401L260.215 68.5493C258.44 66.4344 258.715 63.2808 260.829 61.5054L283.807 42.2173Z" fill="#FF8442"/>
</g>
<defs>
<clipPath id="clip0_7301_47432">
<rect width="480" height="480" fill="white"/>
</clipPath>
</defs>
</svg>
