<svg width="480" height="480" viewBox="0 0 480 480" fill="none" xmlns="http://www.w3.org/2000/svg">
<g clip-path="url(#clip0_7301_47423)">
<path d="M196.272 209.884C211.112 195.044 235.173 195.044 250.013 209.884C264.852 224.724 264.852 248.784 250.013 263.624C235.173 278.464 211.112 278.464 196.272 263.624C181.433 248.785 181.433 224.724 196.272 209.884Z" fill="#00A1FF"/>
<path fill-rule="evenodd" clip-rule="evenodd" d="M209.486 62.8343C228.103 50.9927 251.895 50.9927 270.512 62.8343L389.785 138.701C406.179 149.129 416.109 167.208 416.109 186.636V279.869L416.089 284.839V284.888C415.669 336.522 408.771 373.608 384.591 396.791C362.429 418.038 328.437 424.976 281.928 425.931V426.053H210.181C156.596 426.053 118.252 419.652 94.2734 395.685C70.2933 371.716 63.8888 333.385 63.8887 279.823V186.636C63.8889 167.208 73.8188 149.129 90.2129 138.701L209.486 62.8343ZM275.468 184.428C246.569 155.53 199.715 155.53 170.816 184.428C141.918 213.327 141.918 260.182 170.816 289.08C195.325 313.589 232.748 317.311 261.181 300.248L308.513 347.58C310.465 349.533 313.631 349.533 315.584 347.58L333.969 329.196C335.921 327.243 335.921 324.077 333.969 322.124L286.636 274.791C303.698 246.359 299.976 208.937 275.468 184.428Z" fill="#00A1FF"/>
</g>
<defs>
<clipPath id="clip0_7301_47423">
<rect width="480" height="480" fill="white"/>
</clipPath>
</defs>
</svg>
