<svg width="480" height="480" viewBox="0 0 480 480" fill="none" xmlns="http://www.w3.org/2000/svg">
<path d="M240 216C265.405 216 286 236.595 286 262C286 287.405 265.405 308 240 308C214.595 308 194 287.405 194 262C194 236.595 214.595 216 240 216Z" fill="#545454"/>
<path fill-rule="evenodd" clip-rule="evenodd" d="M310 106.501C385.195 106.604 419.664 141.18 419.664 216.5V309.5C419.664 384.82 385.195 419.395 310 419.498V419.5H170C94.5714 419.5 60 384.932 60 309.5H59.6641V216.5H60C60 141.068 94.5714 106.5 170 106.5L310 106.501ZM240 180C194.713 180 158 216.713 158 262C158 307.287 194.713 344 240 344C285.287 344 322 307.287 322 262C322 216.713 285.287 180 240 180ZM349 159C339.059 159 331 167.059 331 177C331 186.941 339.059 195 349 195C358.941 195 367 186.941 367 177C367 167.059 358.941 159 349 159Z" fill="#545454"/>
<path d="M297 42.5C299.761 42.5 302 44.7386 302 47.5V77.5C302 80.2614 299.761 82.5 297 82.5H183C180.239 82.5 178 80.2614 178 77.5V47.5C178 44.7386 180.239 42.5 183 42.5H297Z" fill="#545454"/>
</svg>
