<svg width="480" height="480" viewBox="0 0 480 480" fill="none" xmlns="http://www.w3.org/2000/svg">
<path d="M185.48 160.472C185.48 188.364 161.043 210.976 130.898 210.976C100.753 210.976 77 188.364 77 160.472V109.018C77 92.2326 90.6076 78.625 107.393 78.625H372.607C389.392 78.625 403 92.2326 403 109.018V160.472C403 188.364 379.371 210.976 349.226 210.976C319.081 210.976 294.644 188.364 294.644 160.472M185.48 160.472C185.48 188.364 209.917 210.976 240.062 210.976C270.207 210.976 294.644 188.364 294.644 160.472M185.48 160.472V91.0214M294.644 160.472V91.0214" stroke="#2F3438" stroke-width="32"/>
<path d="M77 135.75V265.543C77 374.213 104.851 401.377 213.517 401.377H266.483C375.149 401.377 403 374.213 403 265.543V135.75" stroke="#2F3438" stroke-width="32"/>
</svg>
