<svg width="480" height="480" viewBox="0 0 480 480" fill="none" xmlns="http://www.w3.org/2000/svg">
<g clip-path="url(#clip0_7298_128152)">
<path d="M188.289 259.275V92.3901C188.289 69.9409 206.487 51.7422 228.937 51.7422C251.386 51.7422 269.585 69.9409 269.585 92.3901V179.183C269.585 183.835 272.792 187.872 277.323 188.924L386.906 214.849C400.441 218.051 410 230.136 410 244.044V295.377C409.885 384.262 369.017 425 280 425C237.657 425 196.962 408.587 166.467 379.211L73.6068 289.756C57.9019 274.523 57.0139 249.612 71.5942 233.299C86.5586 216.557 112.241 215.06 129.049 229.951L170.955 267.077C177.68 273.035 188.289 268.26 188.289 259.275Z" stroke="#2F3438" stroke-width="32" stroke-linejoin="round"/>
</g>
<defs>
<clipPath id="clip0_7298_128152">
<rect width="480" height="480" fill="white"/>
</clipPath>
</defs>
</svg>
